# xmcd CD database file
#
# Track frame offsets:
#	150
#	14854
#	29828
#	49534
#	64385
#	84362
#	100966
#	120153
#	135170
#	148742
#	162741
#	178089
#
# Disc length: 2615 seconds
#
# Revision: 0
# Processed by: cddbd v1.4PL0 Copyright (c) Steve Scherf et al.
# Submitted via: CDex 1.40Beta8
#
DISCID=a90a350c
DTITLE=Erik en Sanne - Onderweg
DYEAR=1999
DGENRE=Country
TTITLE0=Pandora
TTITLE1=De ballade van het geluk
TTITLE2=Ticket naar Eden
TTITLE3=Niet slecht bedoeld
TTITLE4=Vrijheid is een ander woord
TTITLE5=Onderweg
TTITLE6=De Wilford
TTITLE7=Water
TTITLE8=Na vandaag
TTITLE9=Stil zijn
TTITLE10=Een wrang gevoel
TTITLE11=Hoe kon je mijn liefde vergeten
EXTD=YEAR: 1999 ID3G: 2
EXTT0=
EXTT1=
EXTT2=
EXTT3=
EXTT4=
EXTT5=
EXTT6=
EXTT7=
EXTT8=
EXTT9=
EXTT10=
EXTT11=
PLAYORDER=
